<svg width="33" height="33" viewBox="0 0 33 33" fill="none" xmlns="http://www.w3.org/2000/svg">
<path d="M4.00015 29.2001H6.56515L24.1601 11.6051L21.5951 9.04015L4.00015 26.6351V29.2001ZM0.400146 32.8001V25.1501L24.1601 1.43515C24.5201 1.10515 24.9176 0.850147 25.3526 0.670146C25.7876 0.490146 26.2451 0.400146 26.7251 0.400146C27.2051 0.400146 27.6701 0.490146 28.1201 0.670146C28.5701 0.850147 28.9601 1.12015 29.2901 1.48015L31.7651 4.00015C32.1251 4.33015 32.3876 4.72015 32.5526 5.17015C32.7176 5.62015 32.8001 6.07015 32.8001 6.52015C32.8001 7.00015 32.7176 7.45765 32.5526 7.89265C32.3876 8.32765 32.1251 8.72515 31.7651 9.08515L8.05015 32.8001H0.400146ZM22.8551 10.3451L21.5951 9.04015L24.1601 11.6051L22.8551 10.3451Z" fill="#1F1F1F"/>
</svg>
