<svg width="34" height="34" viewBox="0 0 34 34" fill="none" xmlns="http://www.w3.org/2000/svg">
<path d="M31.8805 34C28.1115 34 24.325 33.1237 20.521 31.371C16.7173 29.6183 13.2225 27.146 10.0365 23.954C6.85083 20.7617 4.38167 17.2667 2.629 13.469C0.876333 9.67167 0 5.8885 0 2.1195C0 1.51383 0.2 1.00917 0.6 0.605499C1 0.201833 1.5 0 2.1 0H8.623C9.128 0 9.5735 0.164834 9.9595 0.494501C10.3455 0.823834 10.591 1.23083 10.696 1.7155L11.8425 7.6C11.9218 8.146 11.9052 8.61517 11.7925 9.0075C11.6795 9.39983 11.4768 9.72933 11.1845 9.996L6.5655 14.4925C7.30883 15.8538 8.15817 17.1417 9.1135 18.356C10.0685 19.57 11.1025 20.7295 12.2155 21.8345C13.3128 22.9322 14.4795 23.9515 15.7155 24.8925C16.9515 25.8335 18.2862 26.7092 19.7195 27.5195L24.2075 22.9925C24.5205 22.6668 24.8995 22.4385 25.3445 22.3075C25.7892 22.1768 26.2513 22.1448 26.731 22.2115L32.2845 23.3425C32.7895 23.4758 33.2017 23.7335 33.521 24.1155C33.8403 24.4975 34 24.9308 34 25.4155V31.9C34 32.5 33.7982 33 33.3945 33.4C32.9908 33.8 32.4862 34 31.8805 34ZM5.146 11.654L8.7155 8.2385C8.7795 8.18717 8.82117 8.11667 8.8405 8.027C8.85983 7.93733 8.85667 7.854 8.831 7.777L7.9615 3.3075C7.93583 3.20517 7.891 3.12833 7.827 3.077C7.763 3.02567 7.67967 3 7.577 3H3.3C3.223 3 3.15883 3.02567 3.1075 3.077C3.0565 3.12833 3.031 3.1925 3.031 3.2695C3.13333 4.63617 3.357 6.0245 3.702 7.4345C4.04667 8.84483 4.528 10.2513 5.146 11.654ZM22.546 28.9385C23.8717 29.5565 25.2543 30.029 26.694 30.356C28.134 30.6827 29.4795 30.8768 30.7305 30.9385C30.8075 30.9385 30.8717 30.9128 30.923 30.8615C30.9743 30.8102 31 30.746 31 30.669V26.4615C31 26.3588 30.9743 26.2755 30.923 26.2115C30.8717 26.1475 30.7948 26.1027 30.6925 26.077L26.4925 25.223C26.4155 25.1973 26.3482 25.1942 26.2905 25.2135C26.2328 25.2328 26.1718 25.2745 26.1075 25.3385L22.546 28.9385Z" fill="#1F1F1F"/>
</svg>
