<svg width="77" height="78" viewBox="0 0 77 78" fill="none" xmlns="http://www.w3.org/2000/svg">
<path d="M46.609 77.25C42.847 77.25 39.73 76.0065 37.258 73.5195C34.786 71.0332 33.55 67.941 33.55 64.2427C33.55 58.8315 35.8131 53.9782 40.3394 49.683C44.8649 45.3877 50.4768 42.7789 57.175 41.8564C56.8923 38.5789 56.1378 36.1455 54.9115 34.5562C53.686 32.967 51.9685 32.1724 49.759 32.1724C47.3358 32.1724 44.7828 33.1312 42.1 35.049C39.4173 36.9675 36.1893 40.194 32.416 44.7285C27.316 50.8958 23.4119 55.0005 20.7036 57.0427C17.9946 59.085 15.1664 60.1061 12.2189 60.1061C8.76888 60.1061 5.91138 58.8472 3.64638 56.3295C1.38213 53.811 0.25 50.6423 0.25 46.8232C0.25 43.119 1.06638 39.2782 2.69913 35.301C4.33188 31.323 7.01763 26.703 10.7564 21.441C12.4409 19.116 13.6566 17.1922 14.4036 15.6697C15.1506 14.1465 15.5241 12.8857 15.5241 11.8875C15.5241 11.1607 15.3584 10.6226 15.0269 10.2731C14.6946 9.92438 14.2112 9.75 13.5767 9.75C12.6827 9.75 11.6586 10.1756 10.5044 11.0269C9.35087 11.8774 8.03837 13.191 6.56687 14.9678L0.25 8.625C2.47675 6.0465 4.705 4.08937 6.93475 2.75362C9.1645 1.41787 11.3785 0.75 13.5767 0.75C16.681 0.75 19.2816 1.79138 21.3786 3.87413C23.4756 5.95688 24.5241 8.58188 24.5241 11.7491C24.5241 13.8379 23.9834 16.1224 22.9019 18.6026C21.8196 21.0836 19.966 24.1759 17.341 27.8794C14.578 31.8431 12.5387 35.3265 11.2232 38.3295C9.90775 41.3325 9.25 44.0254 9.25 46.4081C9.25 47.8556 9.52112 49.0005 10.0634 49.8428C10.6056 50.6857 11.3241 51.1072 12.2189 51.1072C13.0551 51.1072 13.8411 50.8792 14.5769 50.4232C15.3119 49.9673 16.3863 49.0384 17.8 47.6366C18.775 46.6729 19.8869 45.4729 21.1356 44.0366C22.3851 42.6004 23.8983 40.8581 25.675 38.8099C30.4293 33.1271 34.6323 29.1 38.284 26.7285C41.9357 24.3577 45.7461 23.1724 49.7151 23.1724C54.4229 23.1724 58.2449 24.8021 61.1811 28.0616C64.1181 31.3211 65.7828 35.8039 66.175 41.5099H76.7928V50.5099H66.175C65.6328 58.6496 63.5905 65.1412 60.0482 69.9847C56.506 74.8282 52.0263 77.25 46.609 77.25ZM46.7474 68.25C49.4646 68.25 51.7491 66.7009 53.6009 63.6026C55.4526 60.5044 56.6211 56.3014 57.1064 50.9936C53.1659 51.6461 49.7545 53.2631 46.8722 55.8446C43.9907 58.4261 42.55 61.119 42.55 63.9233C42.55 65.2327 42.922 66.2812 43.666 67.0687C44.4108 67.8562 45.4379 68.25 46.7474 68.25Z" fill="#5F6368"/>
</svg>
