<svg width="30" height="29" viewBox="0 0 30 29" fill="none" xmlns="http://www.w3.org/2000/svg">
<path d="M6.375 17.125H17.625V14.875H6.375V17.125ZM6.375 12.625H23.625V10.375H6.375V12.625ZM6.375 8.125H23.625V5.875H6.375V8.125ZM0.75 28.0578V2.96163C0.75 2.20387 1.0125 1.5625 1.5375 1.0375C2.0625 0.5125 2.70387 0.25 3.46163 0.25H26.5384C27.2961 0.25 27.9375 0.5125 28.4625 1.0375C28.9875 1.5625 29.25 2.20387 29.25 2.96163V20.0384C29.25 20.7961 28.9875 21.4375 28.4625 21.9625C27.9375 22.4875 27.2961 22.75 26.5384 22.75H6.05775L0.75 28.0578ZM5.1 20.5H26.5384C26.6539 20.5 26.7596 20.4519 26.8556 20.3556C26.9519 20.2596 27 20.1539 27 20.0384V2.96163C27 2.84613 26.9519 2.74037 26.8556 2.64437C26.7596 2.54812 26.6539 2.5 26.5384 2.5H3.46163C3.34613 2.5 3.24038 2.54812 3.14438 2.64437C3.04813 2.74037 3 2.84613 3 2.96163V22.5771L5.1 20.5Z" fill="#5F6368"/>
</svg>
