<svg width="26" height="27" viewBox="0 0 26 27" fill="none" xmlns="http://www.w3.org/2000/svg">
<path d="M7.08737 20.6539C7.46362 20.6539 7.77875 20.5266 8.03275 20.2721C8.2865 20.0176 8.41338 19.7022 8.41338 19.326C8.41338 18.9498 8.28613 18.6346 8.03163 18.3806C7.77713 18.1269 7.46175 18 7.0855 18C6.70925 18 6.39425 18.1273 6.1405 18.3818C5.8865 18.6362 5.7595 18.9516 5.7595 19.3279C5.7595 19.7041 5.88675 20.0191 6.14125 20.2729C6.396 20.5269 6.71137 20.6539 7.08737 20.6539ZM7.08737 14.8268C7.46362 14.8268 7.77875 14.6995 8.03275 14.445C8.2865 14.1905 8.41338 13.8751 8.41338 13.4989C8.41338 13.1226 8.28613 12.8076 8.03163 12.5539C7.77713 12.3001 7.46175 12.1733 7.0855 12.1733C6.70925 12.1733 6.39425 12.3005 6.1405 12.555C5.8865 12.8095 5.7595 13.1249 5.7595 13.5011C5.7595 13.8774 5.88675 14.1924 6.14125 14.4461C6.396 14.6999 6.71137 14.8268 7.08737 14.8268ZM7.08737 9C7.46362 9 7.77875 8.87275 8.03275 8.61825C8.2865 8.36375 8.41338 8.04838 8.41338 7.67213C8.41338 7.29588 8.28613 6.98088 8.03163 6.72713C7.77713 6.47313 7.46175 6.34612 7.0855 6.34612C6.70925 6.34612 6.39425 6.47337 6.1405 6.72787C5.8865 6.98237 5.7595 7.29775 5.7595 7.674C5.7595 8.05025 5.88675 8.36537 6.14125 8.61937C6.396 8.87312 6.71137 9 7.08737 9ZM11.6444 20.4518H20.1828V18.2021H11.6444V20.4518ZM11.6444 14.625H20.1828V12.375H11.6444V14.625ZM11.6444 8.79787H20.1828V6.54825H11.6444V8.79787ZM2.96163 26.25C2.20387 26.25 1.5625 25.9875 1.0375 25.4625C0.5125 24.9375 0.25 24.2961 0.25 23.5384V3.46163C0.25 2.70387 0.5125 2.0625 1.0375 1.5375C1.5625 1.0125 2.20387 0.75 2.96163 0.75H23.0384C23.7961 0.75 24.4375 1.0125 24.9625 1.5375C25.4875 2.0625 25.75 2.70387 25.75 3.46163V23.5384C25.75 24.2961 25.4875 24.9375 24.9625 25.4625C24.4375 25.9875 23.7961 26.25 23.0384 26.25H2.96163ZM2.96163 24H23.0384C23.1539 24 23.2596 23.9519 23.3556 23.8556C23.4519 23.7596 23.5 23.6539 23.5 23.5384V3.46163C23.5 3.34613 23.4519 3.24037 23.3556 3.14437C23.2596 3.04812 23.1539 3 23.0384 3H2.96163C2.84613 3 2.74038 3.04812 2.64438 3.14437C2.54813 3.24037 2.5 3.34613 2.5 3.46163V23.5384C2.5 23.6539 2.54813 23.7596 2.64438 23.8556C2.74038 23.9519 2.84613 24 2.96163 24Z" fill="#5F6368"/>
</svg>
